<?xml version="1.0" encoding="UTF-8"?>
<svg width="421px" height="300px" viewBox="0 0 421 300" version="1.1" xmlns="http://www.w3.org/2000/svg" xmlns:xlink="http://www.w3.org/1999/xlink">
    <title>undraw_share_re_9kfx</title>
    <g id="Page-1" stroke="none" stroke-width="1" fill="none" fill-rule="evenodd">
        <g id="Desktop-HD" transform="translate(-339.000000, -112.000000)" fill-rule="nonzero">
            <g id="undraw_share_re_9kfx" transform="translate(339.000000, 112.000000)">
                <circle id="Oval" fill="#FF6584" cx="32.8143644" cy="23.8438777" r="17.6451247"></circle>
                <path d="M141.907396,288.012685 C155.943741,293.827641 170.846575,297.276733 186.010456,298.219837 C193.115019,298.662413 200.353528,298.684182 207.421157,297.745443 C213.614224,296.92285 219.90486,295.23508 225.067094,291.583705 C230.227016,287.870886 233.859496,282.407216 235.286473,276.212577 C236.865108,269.683249 236.200736,262.842564 233.946014,256.553828 C231.619046,250.043333 227.94009,244.099248 223.151131,239.112546 C218.858174,234.718655 212.844595,230.721686 206.414428,231.474013 C200.233527,232.197176 195.738367,237.193857 194.092151,242.974623 C192.118465,249.905321 194.389248,257.236871 197.468606,263.476428 C202.691976,274.060294 211.074715,282.944225 221.002419,289.260919 C230.989517,295.654541 242.471025,299.333807 254.314093,299.935695 C266.180778,300.469971 278.943947,297.718446 288.29396,290.051175 C293.218273,286.049391 296.734577,280.578403 298.329592,274.436818 C299.989877,267.954956 299.55557,261.10959 298.11883,254.630328 C294.999752,240.564234 286.761044,228.473158 281.990573,215.009097 C280.807939,211.723686 279.897351,208.346626 279.268005,204.912027 C279.111056,204.030904 277.768341,204.404284 277.924728,205.282352 C280.391567,219.133032 288.198964,231.058661 293.323698,243.957331 C297.99185,255.706797 300.770521,270.131375 293.855215,281.603502 C287.634389,291.923476 275.280262,296.953474 263.758502,298.237644 C252.492601,299.493276 240.958976,297.474697 230.630927,292.859243 C220.23592,288.213867 210.920204,280.977448 204.161796,271.783864 C200.488397,266.786872 197.323916,261.126882 195.70146,255.113916 C194.040622,248.958679 194.430129,241.986408 198.823296,237.015066 C200.762696,234.752368 203.462637,233.277045 206.414415,232.867068 C209.481174,232.483254 212.552313,233.342405 215.247587,234.774952 C221.034724,237.850813 225.341105,243.196821 228.663946,248.725489 C232.09688,254.437323 234.515599,260.911556 234.755628,267.623144 C234.978788,273.862943 233.341539,280.26048 229.590482,285.311495 C221.84613,295.739689 207.291113,297.005569 195.345874,297.085589 C180.704996,297.176207 166.145348,294.904659 152.22789,290.358465 C148.864116,289.259461 145.547388,288.029779 142.277706,286.669417 C141.450591,286.326103 141.089883,287.673373 141.907382,288.012694 L141.907396,288.012685 Z" id="Path" fill="#E6E6E6"></path>
                <path d="M105.695578,242.817981 L101.954705,237.075463 C101.046844,235.678378 101.441187,233.810054 102.836214,232.899034 L125.622947,215.186481 C127.020032,214.278621 128.888356,214.672963 129.799376,216.06799 L133.540254,221.810512 C134.448113,223.207597 134.053769,225.07592 132.658741,225.986937 L109.872031,243.699489 C108.474941,244.607366 106.6066,244.213022 105.695578,242.817981 L105.695578,242.817981 Z" id="Path" fill="#2F2E41"></path>
                <path d="M102.860755,232.924967 L108.870665,229.63079 C110.332635,228.831601 112.165632,229.36663 112.968128,230.826786 L128.925306,259.578021 C129.724495,261.039992 129.189467,262.872991 127.72931,263.675488 L121.719399,266.969666 C120.257429,267.768855 118.42443,267.233827 117.621932,265.77367 L101.664759,237.022435 C100.86557,235.560464 101.400598,233.727465 102.860755,232.924967 L102.860755,232.924967 Z" id="Path" fill="#2F2E41"></path>
                <path d="M61.0872824,180.016967 C59.498701,180.014525 58.1839063,178.781164 58.0800377,177.19598 L57.6321301,170.357101 C57.5231685,168.693712 58.7832696,167.256932 60.4466575,167.14795 L114.026288,163.639059 C116.323985,163.488592 118.527417,164.575362 119.806574,166.489993 C121.08573,168.404624 121.246276,170.856238 120.227735,172.921335 C119.209194,174.986432 117.166307,176.351276 114.86861,176.501742 L61.2890915,180.010405 C61.2216283,180.014705 61.1543586,180.016967 61.0872824,180.016967 Z" id="Path" fill="#6C63FF"></path>
                <path d="M71.652389,180.898726 C70.0305381,180.896011 68.6999862,179.613591 68.637543,177.992941 L68.2557304,167.778248 C68.225832,166.978319 68.5149503,166.199281 69.0594746,165.612533 C69.6039989,165.025786 70.3593181,164.6794 71.1592496,164.649586 L115.219233,163.002836 C116.885013,162.940665 118.285826,164.24058 118.348122,165.906355 L118.729939,176.121048 C118.759838,176.920977 118.470719,177.700015 117.926195,178.286763 C117.381671,178.87351 116.626351,179.219896 115.82642,179.24971 L71.7664554,180.89646 C71.728342,180.898029 71.6901403,180.898726 71.652389,180.898726 Z" id="Path" fill="#CCCCCC"></path>
                <path d="M142.39989,288.895623 L142.39989,266.727872 C142.39989,247.377128 133.957445,228.819472 118.893607,216.673227 C107.634285,207.594662 91.3260529,200.805895 67.9635689,202.322926 L76.8635562,166.722958 L0,219.313815 L75.2454518,271.90471 L67.5590405,238.327431 C67.5590405,238.327431 114.486254,229.427467 142.39989,288.895623 Z" id="Path" fill="#3F3D56"></path>
                <path d="M88.6449784,253.855768 L83.1018182,249.82538 C81.755335,248.844033 81.4573038,246.957948 82.4356033,245.609249 L116.027124,199.409414 C117.008471,198.06293 118.894556,197.764899 120.243255,198.743199 L125.78642,202.773587 C127.132898,203.754936 127.430929,205.641017 126.452634,206.989717 L92.8611091,253.189553 C91.8797627,254.536036 89.9936771,254.834067 88.6449784,253.855768 L88.6449784,253.855768 Z" id="Path" fill="#2F2E41"></path>
                <path d="M82.4677592,245.624726 L86.9072912,240.403496 C87.9880159,239.135391 89.8912821,238.98139 91.1618279,240.059244 L116.324932,261.227218 C117.593039,262.307943 117.747042,264.211211 116.669188,265.481759 L112.229656,270.702989 C111.148932,271.971094 109.245665,272.125095 107.97512,271.047241 L82.812011,249.879267 C81.5439079,248.798539 81.3899072,246.895274 82.4677592,245.624726 Z" id="Path" fill="#2F2E41"></path>
                <circle id="Oval" fill="#6C63FF" cx="112.874405" cy="128.607835" r="23.6816147"></circle>
                <path d="M102.456876,139.038486 C101.655227,139.055245 100.859282,138.900162 100.122566,138.583665 C99.1157551,138.105839 98.3713793,137.207742 98.0886724,136.129752 C97.8729942,135.36551 98.0270454,134.544382 98.5050648,133.910284 C99.1235728,133.116717 100.191493,132.739205 101.448035,132.835788 L98.3379655,124.12954 L99.2124671,123.817105 L102.868723,134.052206 L102.044329,133.865154 C101.088659,133.64908 99.8491172,133.696466 99.2376254,134.481182 C98.9374974,134.891806 98.8460278,135.418904 98.9902593,135.906639 C99.2050496,136.707851 99.7578011,137.375971 100.504596,137.737042 C101.797079,138.320645 103.310055,138.112962 105.010311,137.804837 L105.175827,138.718566 C104.280886,138.906207 103.37093,139.013275 102.456876,139.038486 L102.456876,139.038486 Z" id="Path" fill="#2F2E41"></path>
                <polygon id="Rectangle" fill="#2F2E41" transform="translate(91.695420, 126.807025) rotate(-11.864160) translate(-91.695420, -126.807025) " points="89.1945322 126.342738 94.1963075 126.342738 94.1963075 127.271312 89.1945322 127.271312"></polygon>
                <polygon id="Rectangle" fill="#2F2E41" transform="translate(107.145792, 123.560690) rotate(-11.864160) translate(-107.145792, -123.560690) " points="104.644904 123.096403 109.64668 123.096403 109.64668 124.024977 104.644904 124.024977"></polygon>
                <path d="M132.648636,230.245407 L92.7149332,230.245407 C90.5361096,230.242973 88.7704311,228.477294 88.7679974,226.298471 L97.1281414,162.18888 C97.1420053,160.020415 98.9046409,158.27029 101.07315,158.271871 L115.244971,158.271871 C127.031066,158.285178 136.582266,167.836378 136.595572,179.622473 L136.595572,226.298471 C136.593139,228.477294 134.82746,230.242973 132.648636,230.245407 Z" id="Path" fill="#CCCCCC"></path>
                <path d="M70.2881469,203.477971 C69.0978498,203.478597 68.0179735,202.780692 67.5296242,201.695186 L64.7245137,195.44194 C64.3968444,194.711587 64.3727523,193.880977 64.6575381,193.13286 C64.942324,192.384743 65.5126558,191.780412 66.2430485,191.452832 L115.233637,169.475555 C118.481222,168.018681 122.294939,169.470339 123.751814,172.717924 C125.208688,175.965509 123.75703,179.779226 120.509445,181.236101 L71.5189594,203.213605 C71.1319893,203.387742 70.7124929,203.477971 70.2881469,203.477971 Z" id="Path" fill="#6C63FF"></path>
                <path d="M84.5777447,200.249549 C83.3874754,200.25017 82.3076339,199.552257 81.8193334,198.46676 L77.027953,187.785911 C76.3478023,186.264959 77.0271051,184.480462 78.5464832,183.796803 L118.774827,165.750363 C119.505176,165.422648 120.335803,165.398518 121.083945,165.683282 C121.832086,165.968046 122.436446,166.538372 122.764047,167.268773 L127.555441,177.949399 C127.883113,178.679751 127.907207,179.510362 127.622422,180.258479 C127.337637,181.006597 126.767304,181.610928 126.036911,181.938507 L85.8085757,199.985179 C85.4215653,200.159213 85.0020854,200.249549 84.5777447,200.249549 L84.5777447,200.249549 Z" id="Path" fill="#CCCCCC"></path>
                <path d="M107.619928,113.759927 C103.764069,112.339597 100.594656,116.081654 97.1008518,116.938316 C93.7582662,117.757923 90.1572167,115.829728 88.3718365,113.019408 C86.2888946,109.740702 86.8049355,105.483978 88.6997387,102.247305 C90.7750096,98.7023534 94.4706742,96.5271692 98.3876458,95.5770489 C102.877002,94.4880939 107.554567,95.0236513 111.985276,96.1296199 C116.234946,97.1247402 120.355201,98.6082393 124.263845,100.550522 C127.797346,102.379374 131.146781,104.881351 133.211966,108.346654 C135.088795,111.495895 136.017239,115.415602 135.088604,119.023881 C134.57722,120.88651 133.59445,122.585919 132.2351,123.958169 C130.836343,125.438803 129.233775,126.72231 127.929471,128.292879 C125.957345,130.667597 124.632029,134.55949 126.576471,137.368542 C126.998025,137.983376 127.564273,138.48514 128.225361,138.829656 C129.019531,139.243267 129.724732,138.041513 128.928454,137.626811 C127.52993,136.898444 127.022317,135.420158 127.059929,133.913033 C127.135106,132.202488 127.789016,130.568193 128.914524,129.277904 C130.280684,127.636211 131.969508,126.307139 133.412002,124.737795 C134.807472,123.275181 135.828902,121.497058 136.389352,119.554772 C137.414431,115.798027 136.612818,111.706374 134.798407,108.321844 C132.834941,104.659282 129.543786,101.893776 125.962086,99.8838709 C122.064185,97.6965255 117.732084,96.2305871 113.430969,95.0664779 C108.81584,93.8173888 103.969672,93.1139798 99.2204864,93.9784424 C95.1037023,94.727789 91.0802471,96.7152291 88.4912522,100.077921 C86.0745899,103.216775 84.9201576,107.495012 86.0887292,111.357497 C87.2182988,114.918345 90.1832356,117.591302 93.8417184,118.346991 C95.6686426,118.683003 97.5549559,118.436938 99.2345467,117.643508 C101.044064,116.832617 102.687698,115.572063 104.61221,115.033004 C105.475588,114.769011 106.401492,114.793658 107.249603,115.103209 C108.09206,115.413531 108.455466,114.067719 107.619928,113.759932 L107.619928,113.759927 Z" id="Path" fill="#2F2E41"></path>
                <path d="M277.988742,208.114543 L277.988742,185.946792 C277.988742,166.596071 286.431187,148.038373 301.495025,135.892165 C312.754328,126.813605 329.06257,120.024829 352.425045,121.541878 L343.525057,85.9419053 L420.388683,138.532777 L345.143208,191.123653 L352.829573,157.546397 C352.829573,157.546397 305.90235,148.64641 277.988742,208.114543 Z" id="Path" fill="#3F3D56"></path>
                <path d="M319.769222,97.2043566 C317.740635,95.5672174 316.897999,92.8692826 317.634238,90.368615 C318.370478,87.8679475 320.5406,86.0570207 323.132666,85.7802806 L376.523432,80.0793591 C378.180283,79.9044376 379.666102,81.1035918 379.844928,82.760025 L379.614115,82.7847421 L379.844928,82.760025 L380.572622,89.5748833 C380.657645,90.3708542 380.422967,91.1679974 379.920221,91.7909297 C379.417474,92.413862 378.687847,92.8115492 377.891868,92.8964944 L324.501101,98.5973927 C324.269717,98.6221607 324.037177,98.6345741 323.804471,98.6345741 C322.335035,98.6355046 320.910088,98.1304594 319.769222,97.2043566 Z" id="Path" fill="#6C63FF"></path>
                <path d="M335.496656,144.283263 L335.496656,137.429859 C335.498541,135.76371 336.848752,134.4135 338.514901,134.411614 L395.635958,134.411614 C397.302107,134.4135 398.652317,135.76371 398.654203,137.429859 L398.654203,144.283263 C398.65232,145.949413 397.302108,147.299624 395.635958,147.301508 L338.514901,147.301508 C336.848751,147.299624 335.498539,145.949413 335.496656,144.283263 L335.496656,144.283263 Z" id="Path" fill="#6C63FF"></path>
                <path d="M308.185643,144.616783 C307.469361,144.258463 306.926163,143.628522 306.677087,142.86733 L304.52824,136.359237 C304.00772,134.776507 304.866556,133.071102 306.44809,132.546961 L360.688981,114.637712 C362.271857,114.115079 363.97871,114.974572 364.501349,116.557446 L364.280855,116.630227 L364.501349,116.557446 L366.650196,123.065311 C367.17072,124.64804 366.311885,126.353446 364.730351,126.877587 L310.48946,144.786817 C309.729604,145.039887 308.900108,144.978661 308.185643,144.616769 L308.185643,144.616783 Z" id="Path" fill="#6C63FF"></path>
                <path d="M379.296368,146.627664 L354.953062,124.678522 C353.717014,123.561322 353.61843,121.654456 354.732679,120.415747 L359.322055,115.325635 C360.438445,114.087887 362.34675,113.989228 363.584829,115.105252 L387.928136,137.054394 C389.164184,138.171593 389.262768,140.07846 388.148519,141.317168 L383.559138,146.407053 C383.024493,147.003426 382.273423,147.361039 381.473438,147.400135 C381.420041,147.403082 381.366835,147.404447 381.313819,147.404447 C380.568108,147.405564 379.848773,147.128598 379.296368,146.627664 L379.296368,146.627664 Z" id="Path" fill="#6C63FF"></path>
                <circle id="Oval" fill="#6C63FF" cx="317.407677" cy="44.0936085" r="23.6816147"></circle>
                <path d="M289.690957,138.078313 C286.317351,132.314387 286.317351,125.17841 289.690957,119.414484 L314.793724,75.9351601 C315.332902,75.0013091 316.329321,74.4260368 317.407649,74.4260368 C318.485977,74.4260368 319.482396,75.0013091 320.021575,75.9351601 L358.674019,142.882973 C359.213121,143.816846 359.213079,144.967382 358.673908,145.901215 C358.134738,146.835048 357.138346,147.41067 356.060038,147.41067 L305.854392,147.41067 C299.1758,147.450124 292.995765,143.882055 289.690957,138.078313 Z" id="Path" fill="#CCCCCC"></path>
                <path d="M336.927671,53.1060556 C338.462755,53.0634287 340.373188,53.0101451 341.845014,51.9349766 C342.732075,51.2603632 343.275924,50.2284304 343.331012,49.1153507 C343.385023,48.32303 343.06542,47.5510355 342.467167,47.0287496 C341.698545,46.3789308 340.576116,46.2267973 339.366162,46.5823094 L340.619532,37.4228227 L339.69946,37.2967622 L338.225948,48.0649132 L338.994226,47.712345 C339.885054,47.3037768 341.107814,47.0960937 341.867702,47.7379676 C342.245868,48.0782551 342.443761,48.5753991 342.402902,49.0824843 C342.357299,49.9106571 341.953744,50.6780454 341.297249,51.1849613 C340.151802,52.0216002 338.628962,52.1295234 336.901834,52.1778153 L336.927671,53.1060556 Z" id="Path" fill="#2F2E41"></path>
                <rect id="Rectangle" fill="#2F2E41" x="329.381942" y="38.2127671" width="5.00180313" height="1"></rect>
                <path d="M303.366555,16.164269 C302.036239,10.7278089 298.446449,6.11879501 293.50118,3.49788807 C288.423196,0.888242044 282.440353,0.702609573 277.210351,2.9924249 C271.849883,5.28865042 267.86142,9.94626012 266.417325,15.5962028 C265.683777,18.4005839 265.582261,21.3328838 266.120112,24.1812803 C266.780379,27.1982195 268.060954,30.0448416 269.880473,32.540282 C271.715009,35.1967695 273.871596,37.6076275 275.851644,40.1528207 C277.839196,42.7032801 279.649144,45.3873007 281.268697,48.1859169 C286.148051,56.6180657 289.241853,65.9632781 290.357993,75.6412666 C290.735723,78.5642742 290.807212,81.518734 290.571295,84.4565898 C290.038032,90.1616533 287.827943,95.7495578 282.755076,98.8538275 C280.058065,100.504227 276.945581,101.356519 273.866354,101.952697 C270.410359,102.684913 266.873344,102.961306 263.34556,102.774825 C257.38187,102.351008 251.41401,99.8623206 247.950532,94.7941579 C247.183904,93.6655277 246.583712,92.432431 246.168416,91.1327945 C245.892562,90.277605 247.237153,89.9113572 247.511693,90.7624698 C249.34615,96.4496189 254.913386,99.9552269 260.547809,101.024127 C264.056666,101.611959 267.639158,101.608456 271.146859,101.013763 C274.333318,100.537994 277.617136,99.8793668 280.537548,98.4732407 C283.191068,97.2357539 285.392143,95.2008579 286.833705,92.6524391 C288.137035,90.1922193 288.926096,87.4925104 289.152859,84.7176355 C289.773531,78.6421776 288.762665,72.3524429 287.249043,66.4760499 C285.629308,60.1867281 283.144775,54.1525553 279.866509,48.5461236 C278.229033,45.7448137 276.395852,43.0625893 274.380635,40.5194492 C272.385194,38.0039045 270.256454,35.5849344 268.456809,32.9201351 C266.680011,30.406384 265.428401,27.5601275 264.776825,24.5515726 C264.222216,21.6649363 264.273692,18.6945307 264.927988,15.8288445 C266.2051,10.1055549 269.917825,5.22533387 275.092899,2.46749637 C280.1114,-0.179843476 286.225886,-0.813693502 291.594164,1.13703075 C296.803529,3.05934119 301.043754,6.95988622 303.393357,11.991002 C303.958349,13.2114013 304.399386,14.4854425 304.709832,15.7939582 C304.914975,16.6658596 303.572121,17.0379767 303.366555,16.164283 L303.366555,16.164269 Z" id="Path" fill="#2F2E41"></path>
                <path d="M298.840246,17.2967238 C297.032367,12.1436205 291.640635,9.17224797 286.318481,10.3960035 C285.446403,10.5999718 285.074193,9.25713604 285.948156,9.05272656 C292.020544,7.56311136 298.217987,10.9909588 300.183523,16.9264037 C300.475713,17.7759561 299.130574,18.1408527 298.840246,17.2967238 L298.840246,17.2967238 Z" id="Path" fill="#2F2E41"></path>
                <path d="M298.62779,22.3311565 C298.072698,21.0352918 298.671198,19.5346315 299.965731,18.9764422 L306.364991,16.2259666 C307.660894,15.6690181 309.162926,16.2680589 309.719875,17.5639616 C310.276823,18.8598643 309.677783,20.3618969 308.38188,20.9188454 L301.982736,23.669321 C300.68677,24.2261773 299.184755,23.6270781 298.627794,22.3311565 L298.62779,22.3311565 Z" id="Path" fill="#2F2E41"></path>
                <path d="M314.378353,152.848485 L307.54728,152.293889 C305.886822,152.156992 304.650432,150.701985 304.783315,149.041201 L309.128389,95.5229016 C309.313779,93.2271194 310.710216,91.2047689 312.791407,90.218042 C314.872598,89.2313152 317.322165,89.4302113 319.216906,90.7397695 C321.111646,92.0493278 322.163527,94.270473 321.976111,96.5660906 L317.63092,150.084167 C317.503892,151.649403 316.197914,152.855759 314.627534,152.85845 C314.544886,152.85845 314.46168,152.85506 314.378353,152.848485 Z" id="Path" fill="#6C63FF"></path>
                <path d="M6.02236464,46.2884345 C3.58106413,40.5811189 6.92750846,33.1352014 12.8163227,31.1717169 C18.705137,29.2082324 25.8504977,33.1559065 27.322858,39.1862904 C24.7125756,32.8187776 26.4032516,25.4972568 31.5411309,20.9189395 C36.6790101,16.3406221 44.1462157,15.5016382 50.1719683,18.8256565 C56.1977209,22.1496749 59.4709642,28.9134705 58.3387802,35.7014711 C61.8885614,30.4682197 69.5053024,28.4917568 75.151798,31.3386723 C80.7982936,34.1855878 83.7383661,41.4847118 81.6416423,47.4505842 L3.92110425,47.3117449" id="Path" fill="#F2F2F2"></path>
                <path d="M163.435451,111.296789 C160.99415,105.589473 164.340594,98.1435555 170.229409,96.180071 C176.118223,94.2165865 183.263584,98.1642606 184.735944,104.194645 C182.125662,97.8271318 183.816338,90.505611 188.954217,85.9272936 C194.092096,81.3489762 201.559302,80.5099923 207.585054,83.8340107 C213.610807,87.158029 216.88405,93.9218246 215.751866,100.709825 C219.301647,95.4765738 226.918388,93.5001109 232.564884,96.3470264 C238.21138,99.1939419 241.151452,106.493066 239.054728,112.458938 L161.33419,112.320099" id="Path" fill="#F2F2F2"></path>
            </g>
        </g>
    </g>
</svg>
