<?xml version="1.0" encoding="UTF-8"?>
<svg width="1024px" height="288px" viewBox="0 0 1024 288" version="1.1" xmlns="http://www.w3.org/2000/svg" xmlns:xlink="http://www.w3.org/1999/xlink">
    <title>waves-1</title>
    <g id="Page-1" stroke="none" stroke-width="1" fill="none" fill-rule="evenodd">
        <g id="Desktop-HD" transform="translate(0.000000, -585.000000)" fill-rule="nonzero">
            <g id="waves-1" transform="translate(0.000000, 585.000000)">
                <rect id="Rectangle" fill="#FFFFFF" x="0" y="0" width="1024" height="287"></rect>
                <path d="M0,14 L24.4622222,29.892 C48.9244444,45.784 97.8488889,77.568 146.545778,80.856 C195.356444,84.144 243.825778,58.936 292.636444,54.552 C341.333333,50.168 390.257778,66.608 438.954667,77.02 C487.765333,87.432 536.234667,91.816 585.045333,85.24 C633.742222,78.664 682.666667,61.128 731.363556,49.8392 C780.174222,38.4408 828.643556,33.3992 877.454222,41.948 C926.151111,50.4968 975.075556,72.8552 999.537778,83.9248 L1024,95.104 L1024,288 L999.537778,288 C975.075556,288 926.151111,288 877.454222,288 C828.643556,288 780.174222,288 731.363556,288 C682.666667,288 633.742222,288 585.045333,288 C536.234667,288 487.765333,288 438.954667,288 C390.257778,288 341.333333,288 292.636444,288 C243.825778,288 195.356444,288 146.545778,288 C97.8488889,288 48.9244444,288 24.4622222,288 L0,288 L0,14 Z" id="Path" fill="#818CF8"></path>
                <path d="M0,143.269036 L24.4622222,137.786802 C48.9244444,132.304569 97.8488889,121.340102 146.545778,111.143147 C195.356444,100.836548 243.825778,91.4071066 292.636444,92.0649746 C341.333333,92.8324873 390.257778,103.796954 438.954667,110.594924 C487.765333,117.283249 536.234667,119.914721 585.045333,126.603046 C633.742222,133.401015 682.666667,144.365482 731.363556,143.049746 C780.174222,141.843655 828.643556,128.247716 877.454222,114.432487 C926.151111,100.507614 975.075556,86.2538071 999.537778,79.1269036 L1024,72 L1024,288 L999.537778,288 C975.075556,288 926.151111,288 877.454222,288 C828.643556,288 780.174222,288 731.363556,288 C682.666667,288 633.742222,288 585.045333,288 C536.234667,288 487.765333,288 438.954667,288 C390.257778,288 341.333333,288 292.636444,288 C243.825778,288 195.356444,288 146.545778,288 C97.8488889,288 48.9244444,288 24.4622222,288 L0,288 L0,143.269036 Z" id="Path" fill="#7983F7"></path>
                <path d="M0,120 L24.4622222,125.709804 C48.9244444,131.309804 97.8488889,142.729412 146.545778,141.192157 C195.356444,139.764706 243.825778,125.490196 292.636444,124.721569 C341.333333,124.062745 390.257778,136.8 438.954667,140.643137 C487.765333,144.486275 536.234667,139.435294 585.045333,141.192157 C633.742222,143.058824 682.666667,151.843137 731.363556,154.368627 C780.174222,157.003922 828.643556,153.270588 877.454222,158.101961 C926.151111,162.823529 975.075556,176 999.537778,182.588235 L1024,189.176471 L1024,288 L999.537778,288 C975.075556,288 926.151111,288 877.454222,288 C828.643556,288 780.174222,288 731.363556,288 C682.666667,288 633.742222,288 585.045333,288 C536.234667,288 487.765333,288 438.954667,288 C390.257778,288 341.333333,288 292.636444,288 C243.825778,288 195.356444,288 146.545778,288 C97.8488889,288 48.9244444,288 24.4622222,288 L0,288 L0,120 Z" id="Path" fill="#7179F5"></path>
                <path d="M0,209.281503 L24.4622222,203.486947 C48.9244444,197.58306 97.8488889,185.993947 146.545778,178.668754 C195.356444,171.34356 243.825778,168.500948 292.636444,167.407636 C341.333333,166.314323 390.257778,166.970311 438.954667,175.060823 C487.765333,183.042004 536.234667,198.348378 585.045333,204.033603 C633.742222,209.609497 682.666667,205.673572 731.363556,204.033603 C780.174222,202.393634 828.643556,203.049622 877.454222,198.567041 C926.151111,193.975128 975.075556,184.135316 999.537778,179.21541 L1024,174.295504 L1024,288 L999.537778,288 C975.075556,288 926.151111,288 877.454222,288 C828.643556,288 780.174222,288 731.363556,288 C682.666667,288 633.742222,288 585.045333,288 C536.234667,288 487.765333,288 438.954667,288 C390.257778,288 341.333333,288 292.636444,288 C243.825778,288 195.356444,288 146.545778,288 C97.8488889,288 48.9244444,288 24.4622222,288 L0,288 L0,209.281503 Z" id="Path" fill="#6A70F3"></path>
                <path d="M0,244.363636 L24.4622222,245.454545 C48.9244444,246.545455 97.8488889,248.727273 146.545778,248.181818 C195.356444,247.636364 243.825778,244.363636 292.636444,240.218182 C341.333333,235.963636 390.257778,230.945455 438.954667,229.418182 C487.765333,228 536.234667,230.181818 585.045333,233.236364 C633.742222,236.4 682.666667,240.327273 731.363556,238.036364 C780.174222,235.636364 828.643556,226.909091 877.454222,222.218182 C926.151111,217.418182 975.075556,216.763636 999.537778,216.327273 L1024,216 L1024,288 L999.537778,288 C975.075556,288 926.151111,288 877.454222,288 C828.643556,288 780.174222,288 731.363556,288 C682.666667,288 633.742222,288 585.045333,288 C536.234667,288 487.765333,288 438.954667,288 C390.257778,288 341.333333,288 292.636444,288 C243.825778,288 195.356444,288 146.545778,288 C97.8488889,288 48.9244444,288 24.4622222,288 L0,288 L0,244.363636 Z" id="Path" fill="#6366F1"></path>
            </g>
        </g>
    </g>
</svg>
